{"title":"The Host 2013 1080p.BluRay.5.1.x264 . NVEE","uid":12673254,"size":2643274139,"categoryP":"video","categoryS":"hd___movies","magnet":"?xt=urn:btih:94a1c39e1d8f2bca0f6e6123a39c38abdea6557e&amp;dn=The+Host+2013+1080p.BluRay.5.1.x264+.+NVEE&amp;tr=udp%3A%2F%2Ftracker.leechers-paradise.org%3A6969&amp;tr=udp%3A%2F%2Fzer0day.ch%3A1337&amp;tr=udp%3A%2F%2Fopen.demonii.com%3A1337&amp;tr=udp%3A%2F%2Ftracker.coppersurfer.tk%3A6969&amp;tr=udp%3A%2F%2Fexodus.desync.com%3A6969","seeders":2,"leechers":0,"uploader":".NVEE","files":4,"time":1446480630,"description":"\nQuick note : \r\n\r\nTrackers refresh never most current &amp; so if, \r\nYou require a torrent release I have posted in the past, not seeding,... \r\nPlease do not hesitate to inform me in any means you find fit to do so. \r\nTorrent requests also &quot;Always Welcome.&quot; \r\n\r\n \r\nFULL_INFOs \r\n\r\n99.99% &gt;&gt;&gt; SYNCED GUARANTEED \r\n\r\n&quot;Totally scrutinized / analyzed to be a verified torrent.&quot; \r\n___________________________________________ \r\n\r\nSource : Blu-ray ~ 1080p \r\n\r\n \r\n\r\nSpoken Language : English \r\n\r\nAudio : 6 ~ Channels Only \r\n\r\n \r\nSubs Info : \r\n\r\nx1 ~ English .srt \r\n\r\nAll .srt UTF-8 .idx &amp; .ass subs can be turned On/Off \r\n_____________________________________ \r\n--------------------------------------------------------------------------------- \r\n \r\nGeneral Metadata \r\n\r\nComplete name : The Host 2013.1080p.BluRay.5.1.x264 . NVEE.mp4 \r\nFormat : MPEG-4 \r\nFormat profile : Base Media \r\nCodec ID : isom \r\nFile size : 2.46 GiB \r\nDuration : 2h 5mn \r\nOverall bit rate : 2 805 Kbps \r\nEncoded date : UTC 2013-08-11 09:15:08 \r\nTagged date : UTC 2013-08-11 09:15:08 \r\n\r\n \r\nVideo \r\n\r\nID : 1 \r\nFormat : AVC \r\nFormat/Info : Advanced Video Codec \r\nFormat profile :    \r\nFormat settings, CABAC : Yes \r\nFormat settings, ReFrames : 4 frames \r\nCodec ID : avc1 \r\nCodec ID/Info : Advanced Video Coding \r\nDuration : 2h 5mn \r\nBit rate : 2 361 Kbps \r\nMaximum bit rate : 19.2 Mbps \r\nWidth : 1 920 pixels \r\nHeight : 800 pixels \r\nDisplay aspect ratio : 2.40:1 \r\nFrame rate mode : Constant \r\nFrame rate : 23.976 fps \r\nColor space : YUV \r\nChroma subsampling : 4:2:0 \r\nBit depth : 8 bits \r\nScan type : Progressive \r\nBits/(Pixel*Frame) : 0.064 \r\nStream size : 2.07 GiB (84%) \r\nTitle : 1080p.BluRay.x264 .264#trackID=1:   \r\nWriting library : x264 core 133 r2334 a3ac64b \r\n\r\nEncoded from Physical Blu-ray / Region B \r\n\r\n \r\nAudio \r\n\r\nID : 2 \r\nFormat : AC-3 \r\nFormat/Info : Audio Coding 3 \r\nMode extension : CM (complete main) \r\nFormat settings, Endianness : Big \r\nCodec ID : ac-3 \r\nDuration : 2h 4mn \r\nBit rate mode : Constant \r\nBit rate : 448 Kbps \r\nChannel(s) : 6 channels \r\nChannel positions : Front: L C R, Side: L R, LFE \r\nSampling rate : 48.0 KHz \r\nBit depth : 16 bits \r\nCompression mode : Lossy \r\nStream size : 398 MiB (16%) \r\nTitle : 1080p.BluRay.x264 . NVEE - [0] English_audio.ac3#trackID=1:   \r\nLanguage : English \r\nEncoded date : UTC 2013-08-11 09:27:04 \r\nTagged date : UTC 2013-08-11 09:28:20 \r\n\r\nEncoded from Physical Blu-ray 6 Channel audio &quot;Only&quot;. \r\n\r\n \r\n\r\n \r\n\r\n \r\n\r\n\r\n\r\n\r\nEnj0y !","torrent":{"xt":"urn:btih:94a1c39e1d8f2bca0f6e6123a39c38abdea6557e","amp;dn":"The+Host+2013+1080p.BluRay.5.1.x264+.+NVEE","amp;tr":["udp%3A%2F%2Ftracker.leechers-paradise.org%3A6969","udp%3A%2F%2Fzer0day.ch%3A1337","udp%3A%2F%2Fopen.demonii.com%3A1337","udp%3A%2F%2Ftracker.coppersurfer.tk%3A6969","udp%3A%2F%2Fexodus.desync.com%3A6969"],"infoHash":"94a1c39e1d8f2bca0f6e6123a39c38abdea6557e","infoHashBuffer":{"type":"Buffer","data":[148,161,195,158,29,143,43,202,15,110,97,35,163,156,56,171,222,166,85,126]},"announce":[],"urlList":[]}}